<svg width="68" height="67" viewBox="0 0 68 67" fill="none" xmlns="http://www.w3.org/2000/svg">
<g clip-path="url(#clip0_23:74)" filter="url(#filter0_d_23:74)">
<path d="M14.0033 44.9973C13.7381 44.9973 13.4838 45.1027 13.2962 45.2902C13.1087 45.4777 13.0034 45.7321 13.0034 45.9973V51.9969C13.0034 52.2621 13.1087 52.5164 13.2962 52.704C13.4838 52.8915 13.7381 52.9968 14.0033 52.9968C14.2685 52.9968 14.5228 52.8915 14.7104 52.704C14.8979 52.5164 15.0032 52.2621 15.0032 51.9969V45.9973C15.0032 45.7321 14.8979 45.4777 14.7104 45.2902C14.5228 45.1027 14.2685 44.9973 14.0033 44.9973Z" fill="#F37321"/>
<path d="M18.0031 44.9973C17.7379 44.9973 17.4835 45.1027 17.296 45.2902C17.1085 45.4777 17.0031 45.7321 17.0031 45.9973V51.9969C17.0031 52.2621 17.1085 52.5164 17.296 52.704C17.4835 52.8915 17.7379 52.9968 18.0031 52.9968C18.2683 52.9968 18.5226 52.8915 18.7101 52.704C18.8977 52.5164 19.003 52.2621 19.003 51.9969V45.9973C19.003 45.7321 18.8977 45.4777 18.7101 45.2902C18.5226 45.1027 18.2683 44.9973 18.0031 44.9973Z" fill="#F37321"/>
<path d="M22.0028 34.998C21.7376 34.998 21.4833 35.1034 21.2958 35.2909C21.1082 35.4784 21.0029 35.7328 21.0029 35.998V41.9976C21.0029 42.2628 21.1082 42.5171 21.2958 42.7047C21.4833 42.8922 21.7376 42.9975 22.0028 42.9975C22.268 42.9975 22.5224 42.8922 22.7099 42.7047C22.8974 42.5171 23.0028 42.2628 23.0028 41.9976V35.998C23.0028 35.7328 22.8974 35.4784 22.7099 35.2909C22.5224 35.1034 22.268 34.998 22.0028 34.998Z" fill="#F37321"/>
<path d="M22.0028 44.9973C21.7376 44.9973 21.4833 45.1027 21.2958 45.2902C21.1082 45.4777 21.0029 45.7321 21.0029 45.9973V51.9969C21.0029 52.2621 21.1082 52.5164 21.2958 52.704C21.4833 52.8915 21.7376 52.9968 22.0028 52.9968C22.268 52.9968 22.5224 52.8915 22.7099 52.704C22.8974 52.5164 23.0028 52.2621 23.0028 51.9969V45.9973C23.0028 45.7321 22.8974 45.4777 22.7099 45.2902C22.5224 45.1027 22.268 44.9973 22.0028 44.9973Z" fill="#F37321"/>
<path d="M26.0026 34.998C25.7374 34.998 25.483 35.1034 25.2955 35.2909C25.108 35.4784 25.0026 35.7328 25.0026 35.998V41.9976C25.0026 42.2628 25.108 42.5171 25.2955 42.7047C25.483 42.8922 25.7374 42.9975 26.0026 42.9975C26.2678 42.9975 26.5221 42.8922 26.7097 42.7047C26.8972 42.5171 27.0025 42.2628 27.0025 41.9976V35.998C27.0025 35.7328 26.8972 35.4784 26.7097 35.2909C26.5221 35.1034 26.2678 34.998 26.0026 34.998Z" fill="#F37321"/>
<path d="M26.0026 44.9973C25.7374 44.9973 25.483 45.1027 25.2955 45.2902C25.108 45.4777 25.0026 45.7321 25.0026 45.9973V51.9969C25.0026 52.2621 25.108 52.5164 25.2955 52.704C25.483 52.8915 25.7374 52.9968 26.0026 52.9968C26.2678 52.9968 26.5221 52.8915 26.7097 52.704C26.8972 52.5164 27.0025 52.2621 27.0025 51.9969V45.9973C27.0025 45.7321 26.8972 45.4777 26.7097 45.2902C26.5221 45.1027 26.2678 44.9973 26.0026 44.9973Z" fill="#F37321"/>
<path d="M42.0016 34.998C41.7364 34.998 41.4821 35.1034 41.2946 35.2909C41.107 35.4784 41.0017 35.7328 41.0017 35.998V41.9976C41.0017 42.2628 41.107 42.5171 41.2946 42.7047C41.4821 42.8922 41.7364 42.9975 42.0016 42.9975C42.2668 42.9975 42.5212 42.8922 42.7087 42.7047C42.8962 42.5171 43.0016 42.2628 43.0016 41.9976V35.998C43.0016 35.7328 42.8962 35.4784 42.7087 35.2909C42.5212 35.1034 42.2668 34.998 42.0016 34.998Z" fill="#F37321"/>
<path d="M42.0016 44.9973C41.7364 44.9973 41.4821 45.1027 41.2946 45.2902C41.107 45.4777 41.0017 45.7321 41.0017 45.9973V51.9969C41.0017 52.2621 41.107 52.5164 41.2946 52.704C41.4821 52.8915 41.7364 52.9968 42.0016 52.9968C42.2668 52.9968 42.5212 52.8915 42.7087 52.704C42.8962 52.5164 43.0016 52.2621 43.0016 51.9969V45.9973C43.0016 45.7321 42.8962 45.4777 42.7087 45.2902C42.5212 45.1027 42.2668 44.9973 42.0016 44.9973Z" fill="#F37321"/>
<path d="M46.0014 34.998C45.7362 34.998 45.4818 35.1034 45.2943 35.2909C45.1068 35.4784 45.0015 35.7328 45.0015 35.998V41.9976C45.0015 42.2628 45.1068 42.5171 45.2943 42.7047C45.4818 42.8922 45.7362 42.9975 46.0014 42.9975C46.2666 42.9975 46.5209 42.8922 46.7085 42.7047C46.896 42.5171 47.0013 42.2628 47.0013 41.9976V35.998C47.0013 35.7328 46.896 35.4784 46.7085 35.2909C46.5209 35.1034 46.2666 34.998 46.0014 34.998Z" fill="#F37321"/>
<path d="M46.0014 44.9973C45.7362 44.9973 45.4818 45.1027 45.2943 45.2902C45.1068 45.4777 45.0015 45.7321 45.0015 45.9973V51.9969C45.0015 52.2621 45.1068 52.5164 45.2943 52.704C45.4818 52.8915 45.7362 52.9968 46.0014 52.9968C46.2666 52.9968 46.5209 52.8915 46.7085 52.704C46.896 52.5164 47.0013 52.2621 47.0013 51.9969V45.9973C47.0013 45.7321 46.896 45.4777 46.7085 45.2902C46.5209 45.1027 46.2666 44.9973 46.0014 44.9973Z" fill="#F37321"/>
<path d="M50.0012 44.9973C49.736 44.9973 49.4816 45.1027 49.2941 45.2902C49.1066 45.4777 49.0012 45.7321 49.0012 45.9973V51.9969C49.0012 52.2621 49.1066 52.5164 49.2941 52.704C49.4816 52.8915 49.736 52.9968 50.0012 52.9968C50.2664 52.9968 50.5207 52.8915 50.7082 52.704C50.8957 52.5164 51.0011 52.2621 51.0011 51.9969V45.9973C51.0011 45.7321 50.8957 45.4777 50.7082 45.2902C50.5207 45.1027 50.2664 44.9973 50.0012 44.9973Z" fill="#F37321"/>
<path d="M54.0009 44.9973C53.7357 44.9973 53.4814 45.1027 53.2938 45.2902C53.1063 45.4777 53.001 45.7321 53.001 45.9973V51.9969C53.001 52.2621 53.1063 52.5164 53.2938 52.704C53.4814 52.8915 53.7357 52.9968 54.0009 52.9968C54.2661 52.9968 54.5205 52.8915 54.708 52.704C54.8955 52.5164 55.0009 52.2621 55.0009 51.9969V45.9973C55.0009 45.7321 54.8955 45.4777 54.708 45.2902C54.5205 45.1027 54.2661 44.9973 54.0009 44.9973Z" fill="#F37321"/>
<path d="M34.0021 34.998C33.7369 34.998 33.4826 35.1034 33.295 35.2909C33.1075 35.4784 33.0022 35.7328 33.0022 35.998V41.9976C33.0022 42.2628 33.1075 42.5171 33.295 42.7047C33.4826 42.8922 33.7369 42.9975 34.0021 42.9975C34.2673 42.9975 34.5217 42.8922 34.7092 42.7047C34.8967 42.5171 35.0021 42.2628 35.0021 41.9976V35.998C35.0021 35.7328 34.8967 35.4784 34.7092 35.2909C34.5217 35.1034 34.2673 34.998 34.0021 34.998Z" fill="#F37321"/>
<path d="M34.0021 44.9973C33.7369 44.9973 33.4826 45.1027 33.295 45.2902C33.1075 45.4777 33.0022 45.7321 33.0022 45.9973V51.9969C33.0022 52.2621 33.1075 52.5164 33.295 52.704C33.4826 52.8915 33.7369 52.9968 34.0021 52.9968C34.2673 52.9968 34.5217 52.8915 34.7092 52.704C34.8967 52.5164 35.0021 52.2621 35.0021 51.9969V45.9973C35.0021 45.7321 34.8967 45.4777 34.7092 45.2902C34.5217 45.1027 34.2673 44.9973 34.0021 44.9973Z" fill="#F37321"/>
<path d="M30.0023 34.998C29.7372 34.998 29.4828 35.1034 29.2953 35.2909C29.1078 35.4784 29.0024 35.7328 29.0024 35.998V41.9976C29.0024 42.2628 29.1078 42.5171 29.2953 42.7047C29.4828 42.8922 29.7372 42.9975 30.0023 42.9975C30.2676 42.9975 30.5219 42.8922 30.7094 42.7047C30.8969 42.5171 31.0023 42.2628 31.0023 41.9976V35.998C31.0023 35.7328 30.8969 35.4784 30.7094 35.2909C30.5219 35.1034 30.2676 34.998 30.0023 34.998Z" fill="#F37321"/>
<path d="M30.0023 44.9973C29.7372 44.9973 29.4828 45.1027 29.2953 45.2902C29.1078 45.4777 29.0024 45.7321 29.0024 45.9973V51.9969C29.0024 52.2621 29.1078 52.5164 29.2953 52.704C29.4828 52.8915 29.7372 52.9968 30.0023 52.9968C30.2676 52.9968 30.5219 52.8915 30.7094 52.704C30.8969 52.5164 31.0023 52.2621 31.0023 51.9969V45.9973C31.0023 45.7321 30.8969 45.4777 30.7094 45.2902C30.5219 45.1027 30.2676 44.9973 30.0023 44.9973Z" fill="#F37321"/>
<path d="M38.0019 34.998C37.7367 34.998 37.4823 35.1034 37.2948 35.2909C37.1073 35.4784 37.0019 35.7328 37.0019 35.998V41.9976C37.0019 42.2628 37.1073 42.5171 37.2948 42.7047C37.4823 42.8922 37.7367 42.9975 38.0019 42.9975C38.2671 42.9975 38.5214 42.8922 38.7089 42.7047C38.8965 42.5171 39.0018 42.2628 39.0018 41.9976V35.998C39.0018 35.7328 38.8965 35.4784 38.7089 35.2909C38.5214 35.1034 38.2671 34.998 38.0019 34.998Z" fill="#F37321"/>
<path d="M38.0019 44.9973C37.7367 44.9973 37.4823 45.1027 37.2948 45.2902C37.1073 45.4777 37.0019 45.7321 37.0019 45.9973V51.9969C37.0019 52.2621 37.1073 52.5164 37.2948 52.704C37.4823 52.8915 37.7367 52.9968 38.0019 52.9968C38.2671 52.9968 38.5214 52.8915 38.7089 52.704C38.8965 52.5164 39.0018 52.2621 39.0018 51.9969V45.9973C39.0018 45.7321 38.8965 45.4777 38.7089 45.2902C38.5214 45.1027 38.2671 44.9973 38.0019 44.9973Z" fill="#F37321"/>
<path d="M61.6479 43.8784L63.1342 31.9882C63.3738 31.9558 63.5935 31.8376 63.7527 31.6556C63.9119 31.4736 63.9998 31.2401 64 30.9983V24.9986C64 24.7334 63.8946 24.4791 63.7071 24.2916C63.5196 24.104 63.2653 23.9987 63.0001 23.9987H60.4676C61.2046 23.1771 61.7005 22.1679 61.9007 21.0825C62.1008 19.9971 61.9975 18.8775 61.6021 17.847C61.2066 16.8165 60.5344 15.9152 59.6595 15.2423C58.7846 14.5695 57.7409 14.1512 56.6434 14.0335C57.078 12.8293 57.1159 11.5176 56.7514 10.2903C56.387 9.06303 55.6394 7.98455 54.6181 7.21264C53.5967 6.44073 52.3551 6.01589 51.075 6.00027C49.7948 5.98465 48.5433 6.37906 47.5034 7.12582C46.0161 5.17219 43.625 3.99988 41.0014 3.99988C37.8669 3.99988 35.088 5.67828 33.7778 8.269C32.8801 7.9905 31.9295 7.92687 31.0026 8.08325C30.0758 8.23962 29.1987 8.61163 28.442 9.16926C27.6853 9.72689 27.0703 10.4545 26.6465 11.2935C26.2227 12.1325 26.0021 13.0593 26.0023 13.9993C26.0023 14.0668 26.0045 14.134 26.0068 14.2014C25.313 14.3419 24.636 14.5556 23.9873 14.8389C23.5226 13.9513 22.9133 13.1473 22.1844 12.4599C20.9479 11.2847 20.1826 9.69882 20.0319 7.99964H21.0026C21.2678 7.99964 21.5221 7.89429 21.7096 7.70677C21.8972 7.51924 22.0025 7.2649 22.0025 6.9997V4.99982C22.0016 4.20449 21.6853 3.442 21.1229 2.87961C20.5605 2.31723 19.798 2.00089 19.0027 2H13.003C12.2077 2.00089 11.4452 2.31723 10.8829 2.87961C10.3205 3.442 10.0041 4.20449 10.0032 4.99982V6.9997C10.0032 7.2649 10.1086 7.51924 10.2961 7.70677C10.4836 7.89429 10.738 7.99964 11.0032 7.99964H11.9739C11.8232 9.69887 11.0579 11.2848 9.82137 12.46C8.92748 13.2978 8.21589 14.3108 7.73104 15.4359C7.2462 16.5609 6.9985 17.7739 7.00341 18.999C7.0029 19.7374 7.2759 20.4499 7.76974 20.9989C7.2759 21.5479 7.0029 22.2603 7.00341 22.9987V23.9987H5.00353C4.73833 23.9987 4.48399 24.104 4.29647 24.2916C4.10894 24.4791 4.00359 24.7334 4.00359 24.9986V30.9983C4.00382 31.2401 4.09167 31.4736 4.25086 31.6556C4.41005 31.8376 4.6298 31.9558 4.86941 31.9882L6.35995 43.9125L4.37032 47.5598C4.10439 48.0435 3.97737 48.5914 4.00331 49.1429C4.02924 49.6943 4.20712 50.2279 4.51729 50.6845C4.82745 51.1412 5.25783 51.5033 5.76087 51.7307C6.26391 51.9581 6.82002 52.042 7.36777 51.9731L7.69937 54.6267C7.93948 56.5481 9.64675 57.9966 11.6709 57.9966H56.3327C58.3567 57.9966 60.0641 56.5481 60.3042 54.6272L60.6411 51.9323C61.2607 52.0097 61.889 51.8894 62.4362 51.5884C62.7821 51.3998 63.0874 51.1449 63.3347 50.8382C63.582 50.5316 63.7665 50.1793 63.8777 49.8013C63.9888 49.4234 64.0245 49.0273 63.9825 48.6356C63.9406 48.2438 63.8219 47.8642 63.6333 47.5184L61.6479 43.8784ZM62.0001 25.9986V29.9983H54.077L51.8952 25.9986H62.0001ZM61.1173 31.9982L60.0081 40.8727L55.1678 31.9982H61.1173ZM32.0019 9.99952C32.6466 9.99774 33.2819 10.1536 33.8526 10.4536C33.9808 10.5208 34.1221 10.5594 34.2667 10.5666C34.4113 10.5738 34.5557 10.5496 34.69 10.4955C34.8243 10.4415 34.9453 10.3589 35.0446 10.2535C35.1438 10.1481 35.219 10.0225 35.265 9.88515C36.0423 7.56117 38.3479 5.99976 41.0014 5.99976C43.2887 5.99976 45.4105 7.22194 46.4071 9.11332C46.4821 9.25567 46.5903 9.37782 46.7226 9.4694C46.8549 9.56097 47.0073 9.61927 47.167 9.63935C47.3266 9.65942 47.4887 9.64067 47.6396 9.58469C47.7904 9.52872 47.9256 9.43716 48.0335 9.31781C48.5754 8.7182 49.2863 8.29684 50.0725 8.10926C50.8587 7.92167 51.6832 7.97667 52.4375 8.26699C53.1918 8.55732 53.8405 9.06935 54.298 9.73563C54.7555 10.4019 55.0005 11.1912 55.0005 11.9994C55.0038 12.9076 54.6943 13.7893 54.1242 14.4963C53.9948 14.658 53.9188 14.8559 53.9066 15.0626C53.8945 15.2694 53.9469 15.4749 54.0566 15.6506C54.1663 15.8263 54.3278 15.9636 54.5189 16.0435C54.71 16.1235 54.9212 16.1421 55.1233 16.0969C55.6722 15.9733 56.2409 15.9669 56.7925 16.078C57.344 16.1892 57.8659 16.4155 58.324 16.7421C58.7821 17.0687 59.1662 17.4883 59.4511 17.9735C59.736 18.4586 59.9154 18.9984 59.9775 19.5576C60.0395 20.1168 59.9829 20.6828 59.8114 21.2186C59.6398 21.7545 59.3571 22.2481 58.9818 22.6672C58.6064 23.0863 58.1469 23.4216 57.6332 23.651C57.1195 23.8804 56.5631 23.9989 56.0005 23.9987H53.5415C53.0525 22.4446 52.1913 21.0336 51.0328 19.8882C49.8742 18.7428 48.4534 17.8977 46.8938 17.4266C45.3343 16.9554 43.6833 16.8723 42.0843 17.1845C40.4854 17.4968 38.9869 18.1949 37.7192 19.2182C37.495 19.3996 37.2794 19.5902 37.0725 19.7898C36.2702 18.0601 34.99 16.596 33.3829 15.57C31.7758 14.544 29.9088 13.999 28.0022 13.9993C28.0033 12.9388 28.4251 11.9222 29.175 11.1723C29.9248 10.4225 30.9415 10.0007 32.0019 9.99952ZM51.4174 23.9987H36.585C37.0971 22.7391 37.9198 21.6296 38.9765 20.7739C40.3994 19.6255 42.1727 18.9992 44.0012 18.9992C45.8297 18.9992 47.603 19.6255 49.0259 20.7739C50.0826 21.6296 50.9053 22.7391 51.4174 23.9987ZM24.7107 16.7066C26.0601 16.0983 27.5516 15.8759 29.0197 16.0644C30.4878 16.2528 31.8749 16.8446 33.0269 17.7741C34.239 18.7553 35.1398 20.0677 35.6197 21.5516C35.1244 22.311 34.7346 23.1343 34.4609 23.9987H25.0023V22.9987C25.0028 22.2603 24.7298 21.5479 24.236 20.9989C24.7298 20.4499 25.0028 19.7374 25.0023 18.999C25.0032 18.2256 24.9052 17.4552 24.7107 16.7066ZM48.6679 25.9986L46.7659 27.036C46.5331 27.163 46.3603 27.3773 46.2854 27.6317C46.2106 27.8861 46.2399 28.1599 46.3669 28.3927L47.2428 29.9983H20.7836L21.6365 28.4347C21.7635 28.2019 21.7928 27.9281 21.718 27.6737C21.6432 27.4193 21.4704 27.205 21.2376 27.078L19.2587 25.9986H48.6679ZM12.0031 4.99982C12.0034 4.73471 12.1089 4.48055 12.2963 4.29308C12.4838 4.10562 12.7379 4.00018 13.003 3.99988H19.0027C19.2678 4.00018 19.522 4.10562 19.7094 4.29308C19.8969 4.48055 20.0023 4.73471 20.0026 4.99982V5.99976H12.0031V4.99982ZM19.2813 11.9994H12.7244C13.4504 10.7829 13.8802 9.41281 13.9791 7.99964H18.0266C18.1255 9.41281 18.5553 10.7829 19.2813 11.9994ZM11.1088 13.9993H20.897C21.5662 14.6481 22.0977 15.4254 22.4595 16.2845C22.8213 17.1435 23.0059 18.0668 23.0025 18.999C23.0022 19.2641 22.8967 19.5183 22.7092 19.7057C22.5218 19.8932 22.2676 19.9986 22.0025 19.9989H10.0032C9.73812 19.9986 9.48396 19.8932 9.2965 19.7057C9.10904 19.5183 9.00359 19.2641 9.00329 18.999C8.9998 18.0668 9.18447 17.1435 9.54626 16.2844C9.90804 15.4254 10.4395 14.6481 11.1088 13.9993ZM9.00329 22.9987C9.00359 22.7336 9.10904 22.4795 9.2965 22.292C9.48396 22.1045 9.73812 21.9991 10.0032 21.9988H22.0025C22.2676 21.9991 22.5218 22.1045 22.7092 22.292C22.8967 22.4795 23.0022 22.7336 23.0025 22.9987V23.9987H9.00329V22.9987ZM6.00347 29.9983V25.9986H16.1312L13.9496 29.9983H6.00347ZM12.8587 31.9982L7.99973 40.9063L6.88617 31.9982H12.8587ZM7.88161 49.4757C7.7954 49.6336 7.66821 49.7654 7.51343 49.8572C7.35864 49.9489 7.18198 49.9973 7.00204 49.9971C6.83522 49.9973 6.67108 49.9552 6.52494 49.8748C6.29236 49.7475 6.11972 49.5333 6.0449 49.2789C5.97009 49.0246 5.99919 48.751 6.12584 48.5181L17.6464 27.3971L19.402 28.3548L7.88161 49.4757ZM58.3197 54.3792C58.2045 55.3014 57.3503 55.9968 56.3323 55.9968H11.6709C10.6533 55.9968 9.79912 55.3014 9.6835 54.3792L9.2579 50.9742C9.40378 50.8084 9.53092 50.627 9.637 50.4333L17.0028 36.9299V41.9976C17.0028 42.2628 17.1082 42.5171 17.2957 42.7047C17.4832 42.8922 17.7376 42.9975 18.0028 42.9975C18.268 42.9975 18.5223 42.8922 18.7098 42.7047C18.8973 42.5171 19.0027 42.2628 19.0027 41.9976V35.998C19.0026 35.742 18.9042 35.4958 18.7279 35.3102C18.5516 35.1247 18.3108 35.0138 18.0551 35.0006L19.6928 31.9982H48.3336L49.971 34.9995C49.7112 35.0071 49.4646 35.1156 49.2834 35.302C49.1023 35.4884 49.001 35.7381 49.0009 35.998V41.9976C49.0009 42.2628 49.1062 42.5171 49.2938 42.7047C49.4813 42.8922 49.7356 42.9975 50.0008 42.9975C50.266 42.9975 50.5204 42.8922 50.7079 42.7047C50.8954 42.5171 51.0008 42.2628 51.0008 41.9976V36.8882L58.3662 50.3914C58.4734 50.5871 58.6021 50.7702 58.7499 50.9373L58.3197 54.3792ZM61.9591 49.237C61.9034 49.4269 61.7926 49.5959 61.6407 49.7227C61.4889 49.8495 61.3029 49.9284 61.1062 49.9495C60.9095 49.9705 60.7109 49.9328 60.5357 49.841C60.3605 49.7492 60.2164 49.6075 60.1217 49.4338L48.6009 28.3129L50.3567 27.3552L61.8776 48.4761C61.9408 48.5913 61.9806 48.7178 61.9945 48.8484C62.0085 48.979 61.9965 49.1111 61.9591 49.237Z" fill="#F37321"/>
<path d="M14.0033 44.9973C13.7381 44.9973 13.4838 45.1027 13.2962 45.2902C13.1087 45.4777 13.0034 45.7321 13.0034 45.9973V51.9969C13.0034 52.2621 13.1087 52.5164 13.2962 52.704C13.4838 52.8915 13.7381 52.9968 14.0033 52.9968C14.2685 52.9968 14.5228 52.8915 14.7104 52.704C14.8979 52.5164 15.0032 52.2621 15.0032 51.9969V45.9973C15.0032 45.7321 14.8979 45.4777 14.7104 45.2902C14.5228 45.1027 14.2685 44.9973 14.0033 44.9973Z" stroke="#F37321" stroke-width="0.5"/>
<path d="M18.0031 44.9973C17.7379 44.9973 17.4835 45.1027 17.296 45.2902C17.1085 45.4777 17.0031 45.7321 17.0031 45.9973V51.9969C17.0031 52.2621 17.1085 52.5164 17.296 52.704C17.4835 52.8915 17.7379 52.9968 18.0031 52.9968C18.2683 52.9968 18.5226 52.8915 18.7101 52.704C18.8977 52.5164 19.003 52.2621 19.003 51.9969V45.9973C19.003 45.7321 18.8977 45.4777 18.7101 45.2902C18.5226 45.1027 18.2683 44.9973 18.0031 44.9973Z" stroke="#F37321" stroke-width="0.5"/>
<path d="M22.0028 34.998C21.7376 34.998 21.4833 35.1034 21.2958 35.2909C21.1082 35.4784 21.0029 35.7328 21.0029 35.998V41.9976C21.0029 42.2628 21.1082 42.5171 21.2958 42.7047C21.4833 42.8922 21.7376 42.9975 22.0028 42.9975C22.268 42.9975 22.5224 42.8922 22.7099 42.7047C22.8974 42.5171 23.0028 42.2628 23.0028 41.9976V35.998C23.0028 35.7328 22.8974 35.4784 22.7099 35.2909C22.5224 35.1034 22.268 34.998 22.0028 34.998Z" stroke="#F37321" stroke-width="0.5"/>
<path d="M22.0028 44.9973C21.7376 44.9973 21.4833 45.1027 21.2958 45.2902C21.1082 45.4777 21.0029 45.7321 21.0029 45.9973V51.9969C21.0029 52.2621 21.1082 52.5164 21.2958 52.704C21.4833 52.8915 21.7376 52.9968 22.0028 52.9968C22.268 52.9968 22.5224 52.8915 22.7099 52.704C22.8974 52.5164 23.0028 52.2621 23.0028 51.9969V45.9973C23.0028 45.7321 22.8974 45.4777 22.7099 45.2902C22.5224 45.1027 22.268 44.9973 22.0028 44.9973Z" stroke="#F37321" stroke-width="0.5"/>
<path d="M26.0026 34.998C25.7374 34.998 25.483 35.1034 25.2955 35.2909C25.108 35.4784 25.0026 35.7328 25.0026 35.998V41.9976C25.0026 42.2628 25.108 42.5171 25.2955 42.7047C25.483 42.8922 25.7374 42.9975 26.0026 42.9975C26.2678 42.9975 26.5221 42.8922 26.7097 42.7047C26.8972 42.5171 27.0025 42.2628 27.0025 41.9976V35.998C27.0025 35.7328 26.8972 35.4784 26.7097 35.2909C26.5221 35.1034 26.2678 34.998 26.0026 34.998Z" stroke="#F37321" stroke-width="0.5"/>
<path d="M26.0026 44.9973C25.7374 44.9973 25.483 45.1027 25.2955 45.2902C25.108 45.4777 25.0026 45.7321 25.0026 45.9973V51.9969C25.0026 52.2621 25.108 52.5164 25.2955 52.704C25.483 52.8915 25.7374 52.9968 26.0026 52.9968C26.2678 52.9968 26.5221 52.8915 26.7097 52.704C26.8972 52.5164 27.0025 52.2621 27.0025 51.9969V45.9973C27.0025 45.7321 26.8972 45.4777 26.7097 45.2902C26.5221 45.1027 26.2678 44.9973 26.0026 44.9973Z" stroke="#F37321" stroke-width="0.5"/>
<path d="M42.0016 34.998C41.7364 34.998 41.4821 35.1034 41.2946 35.2909C41.107 35.4784 41.0017 35.7328 41.0017 35.998V41.9976C41.0017 42.2628 41.107 42.5171 41.2946 42.7047C41.4821 42.8922 41.7364 42.9975 42.0016 42.9975C42.2668 42.9975 42.5212 42.8922 42.7087 42.7047C42.8962 42.5171 43.0016 42.2628 43.0016 41.9976V35.998C43.0016 35.7328 42.8962 35.4784 42.7087 35.2909C42.5212 35.1034 42.2668 34.998 42.0016 34.998Z" stroke="#F37321" stroke-width="0.5"/>
<path d="M42.0016 44.9973C41.7364 44.9973 41.4821 45.1027 41.2946 45.2902C41.107 45.4777 41.0017 45.7321 41.0017 45.9973V51.9969C41.0017 52.2621 41.107 52.5164 41.2946 52.704C41.4821 52.8915 41.7364 52.9968 42.0016 52.9968C42.2668 52.9968 42.5212 52.8915 42.7087 52.704C42.8962 52.5164 43.0016 52.2621 43.0016 51.9969V45.9973C43.0016 45.7321 42.8962 45.4777 42.7087 45.2902C42.5212 45.1027 42.2668 44.9973 42.0016 44.9973Z" stroke="#F37321" stroke-width="0.5"/>
<path d="M46.0014 34.998C45.7362 34.998 45.4818 35.1034 45.2943 35.2909C45.1068 35.4784 45.0015 35.7328 45.0015 35.998V41.9976C45.0015 42.2628 45.1068 42.5171 45.2943 42.7047C45.4818 42.8922 45.7362 42.9975 46.0014 42.9975C46.2666 42.9975 46.5209 42.8922 46.7085 42.7047C46.896 42.5171 47.0013 42.2628 47.0013 41.9976V35.998C47.0013 35.7328 46.896 35.4784 46.7085 35.2909C46.5209 35.1034 46.2666 34.998 46.0014 34.998Z" stroke="#F37321" stroke-width="0.5"/>
<path d="M46.0014 44.9973C45.7362 44.9973 45.4818 45.1027 45.2943 45.2902C45.1068 45.4777 45.0015 45.7321 45.0015 45.9973V51.9969C45.0015 52.2621 45.1068 52.5164 45.2943 52.704C45.4818 52.8915 45.7362 52.9968 46.0014 52.9968C46.2666 52.9968 46.5209 52.8915 46.7085 52.704C46.896 52.5164 47.0013 52.2621 47.0013 51.9969V45.9973C47.0013 45.7321 46.896 45.4777 46.7085 45.2902C46.5209 45.1027 46.2666 44.9973 46.0014 44.9973Z" stroke="#F37321" stroke-width="0.5"/>
<path d="M50.0012 44.9973C49.736 44.9973 49.4816 45.1027 49.2941 45.2902C49.1066 45.4777 49.0012 45.7321 49.0012 45.9973V51.9969C49.0012 52.2621 49.1066 52.5164 49.2941 52.704C49.4816 52.8915 49.736 52.9968 50.0012 52.9968C50.2664 52.9968 50.5207 52.8915 50.7082 52.704C50.8957 52.5164 51.0011 52.2621 51.0011 51.9969V45.9973C51.0011 45.7321 50.8957 45.4777 50.7082 45.2902C50.5207 45.1027 50.2664 44.9973 50.0012 44.9973Z" stroke="#F37321" stroke-width="0.5"/>
<path d="M54.0009 44.9973C53.7357 44.9973 53.4814 45.1027 53.2938 45.2902C53.1063 45.4777 53.001 45.7321 53.001 45.9973V51.9969C53.001 52.2621 53.1063 52.5164 53.2938 52.704C53.4814 52.8915 53.7357 52.9968 54.0009 52.9968C54.2661 52.9968 54.5205 52.8915 54.708 52.704C54.8955 52.5164 55.0009 52.2621 55.0009 51.9969V45.9973C55.0009 45.7321 54.8955 45.4777 54.708 45.2902C54.5205 45.1027 54.2661 44.9973 54.0009 44.9973Z" stroke="#F37321" stroke-width="0.5"/>
<path d="M34.0021 34.998C33.7369 34.998 33.4826 35.1034 33.295 35.2909C33.1075 35.4784 33.0022 35.7328 33.0022 35.998V41.9976C33.0022 42.2628 33.1075 42.5171 33.295 42.7047C33.4826 42.8922 33.7369 42.9975 34.0021 42.9975C34.2673 42.9975 34.5217 42.8922 34.7092 42.7047C34.8967 42.5171 35.0021 42.2628 35.0021 41.9976V35.998C35.0021 35.7328 34.8967 35.4784 34.7092 35.2909C34.5217 35.1034 34.2673 34.998 34.0021 34.998Z" stroke="#F37321" stroke-width="0.5"/>
<path d="M34.0021 44.9973C33.7369 44.9973 33.4826 45.1027 33.295 45.2902C33.1075 45.4777 33.0022 45.7321 33.0022 45.9973V51.9969C33.0022 52.2621 33.1075 52.5164 33.295 52.704C33.4826 52.8915 33.7369 52.9968 34.0021 52.9968C34.2673 52.9968 34.5217 52.8915 34.7092 52.704C34.8967 52.5164 35.0021 52.2621 35.0021 51.9969V45.9973C35.0021 45.7321 34.8967 45.4777 34.7092 45.2902C34.5217 45.1027 34.2673 44.9973 34.0021 44.9973Z" stroke="#F37321" stroke-width="0.5"/>
<path d="M30.0023 34.998C29.7372 34.998 29.4828 35.1034 29.2953 35.2909C29.1078 35.4784 29.0024 35.7328 29.0024 35.998V41.9976C29.0024 42.2628 29.1078 42.5171 29.2953 42.7047C29.4828 42.8922 29.7372 42.9975 30.0023 42.9975C30.2676 42.9975 30.5219 42.8922 30.7094 42.7047C30.8969 42.5171 31.0023 42.2628 31.0023 41.9976V35.998C31.0023 35.7328 30.8969 35.4784 30.7094 35.2909C30.5219 35.1034 30.2676 34.998 30.0023 34.998Z" stroke="#F37321" stroke-width="0.5"/>
<path d="M30.0023 44.9973C29.7372 44.9973 29.4828 45.1027 29.2953 45.2902C29.1078 45.4777 29.0024 45.7321 29.0024 45.9973V51.9969C29.0024 52.2621 29.1078 52.5164 29.2953 52.704C29.4828 52.8915 29.7372 52.9968 30.0023 52.9968C30.2676 52.9968 30.5219 52.8915 30.7094 52.704C30.8969 52.5164 31.0023 52.2621 31.0023 51.9969V45.9973C31.0023 45.7321 30.8969 45.4777 30.7094 45.2902C30.5219 45.1027 30.2676 44.9973 30.0023 44.9973Z" stroke="#F37321" stroke-width="0.5"/>
<path d="M38.0019 34.998C37.7367 34.998 37.4823 35.1034 37.2948 35.2909C37.1073 35.4784 37.0019 35.7328 37.0019 35.998V41.9976C37.0019 42.2628 37.1073 42.5171 37.2948 42.7047C37.4823 42.8922 37.7367 42.9975 38.0019 42.9975C38.2671 42.9975 38.5214 42.8922 38.7089 42.7047C38.8965 42.5171 39.0018 42.2628 39.0018 41.9976V35.998C39.0018 35.7328 38.8965 35.4784 38.7089 35.2909C38.5214 35.1034 38.2671 34.998 38.0019 34.998Z" stroke="#F37321" stroke-width="0.5"/>
<path d="M38.0019 44.9973C37.7367 44.9973 37.4823 45.1027 37.2948 45.2902C37.1073 45.4777 37.0019 45.7321 37.0019 45.9973V51.9969C37.0019 52.2621 37.1073 52.5164 37.2948 52.704C37.4823 52.8915 37.7367 52.9968 38.0019 52.9968C38.2671 52.9968 38.5214 52.8915 38.7089 52.704C38.8965 52.5164 39.0018 52.2621 39.0018 51.9969V45.9973C39.0018 45.7321 38.8965 45.4777 38.7089 45.2902C38.5214 45.1027 38.2671 44.9973 38.0019 44.9973Z" stroke="#F37321" stroke-width="0.5"/>
<path d="M61.6479 43.8784L63.1342 31.9882C63.3738 31.9558 63.5935 31.8376 63.7527 31.6556C63.9119 31.4736 63.9998 31.2401 64 30.9983V24.9986C64 24.7334 63.8946 24.4791 63.7071 24.2916C63.5196 24.104 63.2653 23.9987 63.0001 23.9987H60.4676C61.2046 23.1771 61.7005 22.1679 61.9007 21.0825C62.1008 19.9971 61.9975 18.8775 61.6021 17.847C61.2066 16.8165 60.5344 15.9152 59.6595 15.2423C58.7846 14.5695 57.7409 14.1512 56.6434 14.0335C57.078 12.8293 57.1159 11.5176 56.7514 10.2903C56.387 9.06303 55.6394 7.98455 54.6181 7.21264C53.5967 6.44073 52.3551 6.01589 51.075 6.00027C49.7948 5.98465 48.5433 6.37906 47.5034 7.12582C46.0161 5.17219 43.625 3.99988 41.0014 3.99988C37.8669 3.99988 35.088 5.67828 33.7778 8.269C32.8801 7.9905 31.9295 7.92687 31.0026 8.08325C30.0758 8.23962 29.1987 8.61163 28.442 9.16926C27.6853 9.72689 27.0703 10.4545 26.6465 11.2935C26.2227 12.1325 26.0021 13.0593 26.0023 13.9993C26.0023 14.0668 26.0045 14.134 26.0068 14.2014C25.313 14.3419 24.636 14.5556 23.9873 14.8389C23.5226 13.9513 22.9133 13.1473 22.1844 12.4599C20.9479 11.2847 20.1826 9.69882 20.0319 7.99964H21.0026C21.2678 7.99964 21.5221 7.89429 21.7096 7.70677C21.8972 7.51924 22.0025 7.2649 22.0025 6.9997V4.99982C22.0016 4.20449 21.6853 3.442 21.1229 2.87961C20.5605 2.31723 19.798 2.00089 19.0027 2H13.003C12.2077 2.00089 11.4452 2.31723 10.8829 2.87961C10.3205 3.442 10.0041 4.20449 10.0032 4.99982V6.9997C10.0032 7.2649 10.1086 7.51924 10.2961 7.70677C10.4836 7.89429 10.738 7.99964 11.0032 7.99964H11.9739C11.8232 9.69887 11.0579 11.2848 9.82137 12.46C8.92748 13.2978 8.21589 14.3108 7.73104 15.4359C7.2462 16.5609 6.9985 17.7739 7.00341 18.999C7.0029 19.7374 7.2759 20.4499 7.76974 20.9989C7.2759 21.5479 7.0029 22.2603 7.00341 22.9987V23.9987H5.00353C4.73833 23.9987 4.48399 24.104 4.29647 24.2916C4.10894 24.4791 4.00359 24.7334 4.00359 24.9986V30.9983C4.00382 31.2401 4.09167 31.4736 4.25086 31.6556C4.41005 31.8376 4.6298 31.9558 4.86941 31.9882L6.35995 43.9125L4.37032 47.5598C4.10439 48.0435 3.97737 48.5914 4.00331 49.1429C4.02924 49.6943 4.20712 50.2279 4.51729 50.6845C4.82745 51.1412 5.25783 51.5033 5.76087 51.7307C6.26391 51.9581 6.82002 52.042 7.36777 51.9731L7.69937 54.6267C7.93948 56.5481 9.64675 57.9966 11.6709 57.9966H56.3327C58.3567 57.9966 60.0641 56.5481 60.3042 54.6272L60.6411 51.9323C61.2607 52.0097 61.889 51.8894 62.4362 51.5884C62.7821 51.3998 63.0874 51.1449 63.3347 50.8382C63.582 50.5316 63.7665 50.1793 63.8777 49.8013C63.9888 49.4234 64.0245 49.0273 63.9825 48.6356C63.9406 48.2438 63.8219 47.8642 63.6333 47.5184L61.6479 43.8784ZM62.0001 25.9986V29.9983H54.077L51.8952 25.9986H62.0001ZM61.1173 31.9982L60.0081 40.8727L55.1678 31.9982H61.1173ZM32.0019 9.99952C32.6466 9.99774 33.2819 10.1536 33.8526 10.4536C33.9808 10.5208 34.1221 10.5594 34.2667 10.5666C34.4113 10.5738 34.5557 10.5496 34.69 10.4955C34.8243 10.4415 34.9453 10.3589 35.0446 10.2535C35.1438 10.1481 35.219 10.0225 35.265 9.88515C36.0423 7.56117 38.3479 5.99976 41.0014 5.99976C43.2887 5.99976 45.4105 7.22194 46.4071 9.11332C46.4821 9.25567 46.5903 9.37782 46.7226 9.4694C46.8549 9.56097 47.0073 9.61927 47.167 9.63935C47.3266 9.65942 47.4887 9.64067 47.6396 9.58469C47.7904 9.52872 47.9256 9.43716 48.0335 9.31781C48.5754 8.7182 49.2863 8.29684 50.0725 8.10926C50.8587 7.92167 51.6832 7.97667 52.4375 8.26699C53.1918 8.55732 53.8405 9.06935 54.298 9.73563C54.7555 10.4019 55.0005 11.1912 55.0005 11.9994C55.0038 12.9076 54.6943 13.7893 54.1242 14.4963C53.9948 14.658 53.9188 14.8559 53.9066 15.0626C53.8945 15.2694 53.9469 15.4749 54.0566 15.6506C54.1663 15.8263 54.3278 15.9636 54.5189 16.0435C54.71 16.1235 54.9212 16.1421 55.1233 16.0969C55.6722 15.9733 56.2409 15.9669 56.7925 16.078C57.344 16.1892 57.8659 16.4155 58.324 16.7421C58.7821 17.0687 59.1662 17.4883 59.4511 17.9735C59.736 18.4586 59.9154 18.9984 59.9775 19.5576C60.0395 20.1168 59.9829 20.6828 59.8114 21.2186C59.6398 21.7545 59.3571 22.2481 58.9818 22.6672C58.6064 23.0863 58.1469 23.4216 57.6332 23.651C57.1195 23.8804 56.5631 23.9989 56.0005 23.9987H53.5415C53.0525 22.4446 52.1913 21.0336 51.0328 19.8882C49.8742 18.7428 48.4534 17.8977 46.8938 17.4266C45.3343 16.9554 43.6833 16.8723 42.0843 17.1845C40.4854 17.4968 38.9869 18.1949 37.7192 19.2182C37.495 19.3996 37.2794 19.5902 37.0725 19.7898C36.2702 18.0601 34.99 16.596 33.3829 15.57C31.7758 14.544 29.9088 13.999 28.0022 13.9993C28.0033 12.9388 28.4251 11.9222 29.175 11.1723C29.9248 10.4225 30.9415 10.0007 32.0019 9.99952ZM51.4174 23.9987H36.585C37.0971 22.7391 37.9198 21.6296 38.9765 20.7739C40.3994 19.6255 42.1727 18.9992 44.0012 18.9992C45.8297 18.9992 47.603 19.6255 49.0259 20.7739C50.0826 21.6296 50.9053 22.7391 51.4174 23.9987ZM24.7107 16.7066C26.0601 16.0983 27.5516 15.8759 29.0197 16.0644C30.4878 16.2528 31.8749 16.8446 33.0269 17.7741C34.239 18.7553 35.1398 20.0677 35.6197 21.5516C35.1244 22.311 34.7346 23.1343 34.4609 23.9987H25.0023V22.9987C25.0028 22.2603 24.7298 21.5479 24.236 20.9989C24.7298 20.4499 25.0028 19.7374 25.0023 18.999C25.0032 18.2256 24.9052 17.4552 24.7107 16.7066ZM48.6679 25.9986L46.7659 27.036C46.5331 27.163 46.3603 27.3773 46.2854 27.6317C46.2106 27.8861 46.2399 28.1599 46.3669 28.3927L47.2428 29.9983H20.7836L21.6365 28.4347C21.7635 28.2019 21.7928 27.9281 21.718 27.6737C21.6432 27.4193 21.4704 27.205 21.2376 27.078L19.2587 25.9986H48.6679ZM12.0031 4.99982C12.0034 4.73471 12.1089 4.48055 12.2963 4.29308C12.4838 4.10562 12.7379 4.00018 13.003 3.99988H19.0027C19.2678 4.00018 19.522 4.10562 19.7094 4.29308C19.8969 4.48055 20.0023 4.73471 20.0026 4.99982V5.99976H12.0031V4.99982ZM19.2813 11.9994H12.7244C13.4504 10.7829 13.8802 9.41281 13.9791 7.99964H18.0266C18.1255 9.41281 18.5553 10.7829 19.2813 11.9994ZM11.1088 13.9993H20.897C21.5662 14.6481 22.0977 15.4254 22.4595 16.2845C22.8213 17.1435 23.0059 18.0668 23.0025 18.999C23.0022 19.2641 22.8967 19.5183 22.7092 19.7057C22.5218 19.8932 22.2676 19.9986 22.0025 19.9989H10.0032C9.73812 19.9986 9.48396 19.8932 9.2965 19.7057C9.10904 19.5183 9.00359 19.2641 9.00329 18.999C8.9998 18.0668 9.18447 17.1435 9.54626 16.2844C9.90804 15.4254 10.4395 14.6481 11.1088 13.9993ZM9.00329 22.9987C9.00359 22.7336 9.10904 22.4795 9.2965 22.292C9.48396 22.1045 9.73812 21.9991 10.0032 21.9988H22.0025C22.2676 21.9991 22.5218 22.1045 22.7092 22.292C22.8967 22.4795 23.0022 22.7336 23.0025 22.9987V23.9987H9.00329V22.9987ZM6.00347 29.9983V25.9986H16.1312L13.9496 29.9983H6.00347ZM12.8587 31.9982L7.99973 40.9063L6.88617 31.9982H12.8587ZM7.88161 49.4757C7.7954 49.6336 7.66821 49.7654 7.51343 49.8572C7.35864 49.9489 7.18198 49.9973 7.00204 49.9971C6.83522 49.9973 6.67108 49.9552 6.52494 49.8748C6.29236 49.7475 6.11972 49.5333 6.0449 49.2789C5.97009 49.0246 5.99919 48.751 6.12584 48.5181L17.6464 27.3971L19.402 28.3548L7.88161 49.4757ZM58.3197 54.3792C58.2045 55.3014 57.3503 55.9968 56.3323 55.9968H11.6709C10.6533 55.9968 9.79912 55.3014 9.6835 54.3792L9.2579 50.9742C9.40378 50.8084 9.53092 50.627 9.637 50.4333L17.0028 36.9299V41.9976C17.0028 42.2628 17.1082 42.5171 17.2957 42.7047C17.4832 42.8922 17.7376 42.9975 18.0028 42.9975C18.268 42.9975 18.5223 42.8922 18.7098 42.7047C18.8973 42.5171 19.0027 42.2628 19.0027 41.9976V35.998C19.0026 35.742 18.9042 35.4958 18.7279 35.3102C18.5516 35.1247 18.3108 35.0138 18.0551 35.0006L19.6928 31.9982H48.3336L49.971 34.9995C49.7112 35.0071 49.4646 35.1156 49.2834 35.302C49.1023 35.4884 49.001 35.7381 49.0009 35.998V41.9976C49.0009 42.2628 49.1062 42.5171 49.2938 42.7047C49.4813 42.8922 49.7356 42.9975 50.0008 42.9975C50.266 42.9975 50.5204 42.8922 50.7079 42.7047C50.8954 42.5171 51.0008 42.2628 51.0008 41.9976V36.8882L58.3662 50.3914C58.4734 50.5871 58.6021 50.7702 58.7499 50.9373L58.3197 54.3792ZM61.9591 49.237C61.9034 49.4269 61.7926 49.5959 61.6407 49.7227C61.4889 49.8495 61.3029 49.9284 61.1062 49.9495C60.9095 49.9705 60.7109 49.9328 60.5357 49.841C60.3605 49.7492 60.2164 49.6075 60.1217 49.4338L48.6009 28.3129L50.3567 27.3552L61.8776 48.4761C61.9408 48.5913 61.9806 48.7178 61.9945 48.8484C62.0085 48.979 61.9965 49.1111 61.9591 49.237Z" stroke="#F37321" stroke-width="0.5"/>
</g>
<defs>
<filter id="filter0_d_23:74" x="0" y="0" width="68" height="68" filterUnits="userSpaceOnUse" color-interpolation-filters="sRGB">
<feFlood flood-opacity="0" result="BackgroundImageFix"/>
<feColorMatrix in="SourceAlpha" type="matrix" values="0 0 0 0 0 0 0 0 0 0 0 0 0 0 0 0 0 0 127 0" result="hardAlpha"/>
<feOffset dy="4"/>
<feGaussianBlur stdDeviation="2"/>
<feComposite in2="hardAlpha" operator="out"/>
<feColorMatrix type="matrix" values="0 0 0 0 0 0 0 0 0 0 0 0 0 0 0 0 0 0 0.25 0"/>
<feBlend mode="normal" in2="BackgroundImageFix" result="effect1_dropShadow_23:74"/>
<feBlend mode="normal" in="SourceGraphic" in2="effect1_dropShadow_23:74" result="shape"/>
</filter>
<clipPath id="clip0_23:74">
<rect width="60" height="60" fill="white" transform="translate(4)"/>
</clipPath>
</defs>
</svg>
